
  <svg width="400" height="1500" viewBox="0 0 400 1600" fill="none" xmlns="http://www.w3.org/2000/svg">
    <rect width="100" height="100" x="0" y="0" fill="hsl(8 88% 56%)" />,<rect width="100" height="100" x="100" y="0" fill="hsl(8 88% 60%)" />,<rect width="100" height="100" x="200" y="0" fill="hsl(8 88% 64%)" />,<rect width="100" height="100" x="300" y="0" fill="hsl(8 88% 72%)" />,<rect width="100" height="100" x="0" y="100" fill="hsl(32 88% 56%)" />,<rect width="100" height="100" x="100" y="100" fill="hsl(32 88% 60%)" />,<rect width="100" height="100" x="200" y="100" fill="hsl(32 88% 64%)" />,<rect width="100" height="100" x="300" y="100" fill="hsl(32 88% 72%)" />,<rect width="100" height="100" x="0" y="200" fill="hsl(56 88% 56%)" />,<rect width="100" height="100" x="100" y="200" fill="hsl(56 88% 60%)" />,<rect width="100" height="100" x="200" y="200" fill="hsl(56 88% 64%)" />,<rect width="100" height="100" x="300" y="200" fill="hsl(56 88% 72%)" />,<rect width="100" height="100" x="0" y="300" fill="hsl(80 88% 56%)" />,<rect width="100" height="100" x="100" y="300" fill="hsl(80 88% 60%)" />,<rect width="100" height="100" x="200" y="300" fill="hsl(80 88% 64%)" />,<rect width="100" height="100" x="300" y="300" fill="hsl(80 88% 72%)" />,<rect width="100" height="100" x="0" y="400" fill="hsl(104 88% 56%)" />,<rect width="100" height="100" x="100" y="400" fill="hsl(104 88% 60%)" />,<rect width="100" height="100" x="200" y="400" fill="hsl(104 88% 64%)" />,<rect width="100" height="100" x="300" y="400" fill="hsl(104 88% 72%)" />,<rect width="100" height="100" x="0" y="500" fill="hsl(128 88% 56%)" />,<rect width="100" height="100" x="100" y="500" fill="hsl(128 88% 60%)" />,<rect width="100" height="100" x="200" y="500" fill="hsl(128 88% 64%)" />,<rect width="100" height="100" x="300" y="500" fill="hsl(128 88% 72%)" />,<rect width="100" height="100" x="0" y="600" fill="hsl(152 88% 56%)" />,<rect width="100" height="100" x="100" y="600" fill="hsl(152 88% 60%)" />,<rect width="100" height="100" x="200" y="600" fill="hsl(152 88% 64%)" />,<rect width="100" height="100" x="300" y="600" fill="hsl(152 88% 72%)" />,<rect width="100" height="100" x="0" y="700" fill="hsl(176 88% 56%)" />,<rect width="100" height="100" x="100" y="700" fill="hsl(176 88% 60%)" />,<rect width="100" height="100" x="200" y="700" fill="hsl(176 88% 64%)" />,<rect width="100" height="100" x="300" y="700" fill="hsl(176 88% 72%)" />,<rect width="100" height="100" x="0" y="800" fill="hsl(200 88% 56%)" />,<rect width="100" height="100" x="100" y="800" fill="hsl(200 88% 60%)" />,<rect width="100" height="100" x="200" y="800" fill="hsl(200 88% 64%)" />,<rect width="100" height="100" x="300" y="800" fill="hsl(200 88% 72%)" />,<rect width="100" height="100" x="0" y="900" fill="hsl(224 88% 56%)" />,<rect width="100" height="100" x="100" y="900" fill="hsl(224 88% 60%)" />,<rect width="100" height="100" x="200" y="900" fill="hsl(224 88% 64%)" />,<rect width="100" height="100" x="300" y="900" fill="hsl(224 88% 72%)" />,<rect width="100" height="100" x="0" y="1000" fill="hsl(248 88% 56%)" />,<rect width="100" height="100" x="100" y="1000" fill="hsl(248 88% 60%)" />,<rect width="100" height="100" x="200" y="1000" fill="hsl(248 88% 64%)" />,<rect width="100" height="100" x="300" y="1000" fill="hsl(248 88% 72%)" />,<rect width="100" height="100" x="0" y="1100" fill="hsl(272 88% 56%)" />,<rect width="100" height="100" x="100" y="1100" fill="hsl(272 88% 60%)" />,<rect width="100" height="100" x="200" y="1100" fill="hsl(272 88% 64%)" />,<rect width="100" height="100" x="300" y="1100" fill="hsl(272 88% 72%)" />,<rect width="100" height="100" x="0" y="1200" fill="hsl(296 88% 56%)" />,<rect width="100" height="100" x="100" y="1200" fill="hsl(296 88% 60%)" />,<rect width="100" height="100" x="200" y="1200" fill="hsl(296 88% 64%)" />,<rect width="100" height="100" x="300" y="1200" fill="hsl(296 88% 72%)" />,<rect width="100" height="100" x="0" y="1300" fill="hsl(320 88% 56%)" />,<rect width="100" height="100" x="100" y="1300" fill="hsl(320 88% 60%)" />,<rect width="100" height="100" x="200" y="1300" fill="hsl(320 88% 64%)" />,<rect width="100" height="100" x="300" y="1300" fill="hsl(320 88% 72%)" />,<rect width="100" height="100" x="0" y="1400" fill="hsl(344 88% 56%)" />,<rect width="100" height="100" x="100" y="1400" fill="hsl(344 88% 60%)" />,<rect width="100" height="100" x="200" y="1400" fill="hsl(344 88% 64%)" />,<rect width="100" height="100" x="300" y="1400" fill="hsl(344 88% 72%)" />
  </svg>
