<svg width="400" height="1500" viewBox="0 0 400 1500">
    <rect width="100" height="100" x="0" y="0" fill="hsl(176 88% 56%)" />
<rect width="100" height="100" x="100" y="0" fill="hsl(176 88% 60%)" />
<rect width="100" height="100" x="200" y="0" fill="hsl(176 88% 64%)" />
<rect width="100" height="100" x="300" y="0" fill="hsl(176 88% 72%)" />
<rect width="100" height="100" x="0" y="100" fill="hsl(198.5 88% 56%)" />
<rect width="100" height="100" x="100" y="100" fill="hsl(198.5 88% 60%)" />
<rect width="100" height="100" x="200" y="100" fill="hsl(198.5 88% 64%)" />
<rect width="100" height="100" x="300" y="100" fill="hsl(198.5 88% 72%)" />
<rect width="100" height="100" x="0" y="200" fill="hsl(221 88% 56%)" />
<rect width="100" height="100" x="100" y="200" fill="hsl(221 88% 60%)" />
<rect width="100" height="100" x="200" y="200" fill="hsl(221 88% 64%)" />
<rect width="100" height="100" x="300" y="200" fill="hsl(221 88% 72%)" />
<rect width="100" height="100" x="0" y="300" fill="hsl(243.5 88% 56%)" />
<rect width="100" height="100" x="100" y="300" fill="hsl(243.5 88% 60%)" />
<rect width="100" height="100" x="200" y="300" fill="hsl(243.5 88% 64%)" />
<rect width="100" height="100" x="300" y="300" fill="hsl(243.5 88% 72%)" />
<rect width="100" height="100" x="0" y="400" fill="hsl(266 88% 56%)" />
<rect width="100" height="100" x="100" y="400" fill="hsl(266 88% 60%)" />
<rect width="100" height="100" x="200" y="400" fill="hsl(266 88% 64%)" />
<rect width="100" height="100" x="300" y="400" fill="hsl(266 88% 72%)" />
<rect width="100" height="100" x="0" y="500" fill="hsl(288.5 88% 56%)" />
<rect width="100" height="100" x="100" y="500" fill="hsl(288.5 88% 60%)" />
<rect width="100" height="100" x="200" y="500" fill="hsl(288.5 88% 64%)" />
<rect width="100" height="100" x="300" y="500" fill="hsl(288.5 88% 72%)" />
<rect width="100" height="100" x="0" y="600" fill="hsl(311 88% 56%)" />
<rect width="100" height="100" x="100" y="600" fill="hsl(311 88% 60%)" />
<rect width="100" height="100" x="200" y="600" fill="hsl(311 88% 64%)" />
<rect width="100" height="100" x="300" y="600" fill="hsl(311 88% 72%)" />
<rect width="100" height="100" x="0" y="700" fill="hsl(333.5 88% 56%)" />
<rect width="100" height="100" x="100" y="700" fill="hsl(333.5 88% 60%)" />
<rect width="100" height="100" x="200" y="700" fill="hsl(333.5 88% 64%)" />
<rect width="100" height="100" x="300" y="700" fill="hsl(333.5 88% 72%)" />
<rect width="100" height="100" x="0" y="800" fill="hsl(356 88% 56%)" />
<rect width="100" height="100" x="100" y="800" fill="hsl(356 88% 60%)" />
<rect width="100" height="100" x="200" y="800" fill="hsl(356 88% 64%)" />
<rect width="100" height="100" x="300" y="800" fill="hsl(356 88% 72%)" />
<rect width="100" height="100" x="0" y="900" fill="hsl(378.5 88% 56%)" />
<rect width="100" height="100" x="100" y="900" fill="hsl(378.5 88% 60%)" />
<rect width="100" height="100" x="200" y="900" fill="hsl(378.5 88% 64%)" />
<rect width="100" height="100" x="300" y="900" fill="hsl(378.5 88% 72%)" />
<rect width="100" height="100" x="0" y="1000" fill="hsl(401 88% 56%)" />
<rect width="100" height="100" x="100" y="1000" fill="hsl(401 88% 60%)" />
<rect width="100" height="100" x="200" y="1000" fill="hsl(401 88% 64%)" />
<rect width="100" height="100" x="300" y="1000" fill="hsl(401 88% 72%)" />
<rect width="100" height="100" x="0" y="1100" fill="hsl(423.5 88% 56%)" />
<rect width="100" height="100" x="100" y="1100" fill="hsl(423.5 88% 60%)" />
<rect width="100" height="100" x="200" y="1100" fill="hsl(423.5 88% 64%)" />
<rect width="100" height="100" x="300" y="1100" fill="hsl(423.5 88% 72%)" />
<rect width="100" height="100" x="0" y="1200" fill="hsl(446 88% 56%)" />
<rect width="100" height="100" x="100" y="1200" fill="hsl(446 88% 60%)" />
<rect width="100" height="100" x="200" y="1200" fill="hsl(446 88% 64%)" />
<rect width="100" height="100" x="300" y="1200" fill="hsl(446 88% 72%)" />
<rect width="100" height="100" x="0" y="1300" fill="hsl(468.5 88% 56%)" />
<rect width="100" height="100" x="100" y="1300" fill="hsl(468.5 88% 60%)" />
<rect width="100" height="100" x="200" y="1300" fill="hsl(468.5 88% 64%)" />
<rect width="100" height="100" x="300" y="1300" fill="hsl(468.5 88% 72%)" />
<rect width="100" height="100" x="0" y="1400" fill="hsl(491 88% 56%)" />
<rect width="100" height="100" x="100" y="1400" fill="hsl(491 88% 60%)" />
<rect width="100" height="100" x="200" y="1400" fill="hsl(491 88% 64%)" />
<rect width="100" height="100" x="300" y="1400" fill="hsl(491 88% 72%)" />
<rect width="100" height="100" x="0" y="1500" fill="hsl(513.5 88% 56%)" />
<rect width="100" height="100" x="100" y="1500" fill="hsl(513.5 88% 60%)" />
<rect width="100" height="100" x="200" y="1500" fill="hsl(513.5 88% 64%)" />
<rect width="100" height="100" x="300" y="1500" fill="hsl(513.5 88% 72%)" />
  </svg>
